<svg width="1083" height="281" viewBox="0 0 1083 281" fill="none" xmlns="http://www.w3.org/2000/svg">
    <g opacity="0.03">
        <path d="M0 0.000152588H53.8145V74.0641H115.208V120.64H53.8145V189.36C53.8145 214.938 59.1201 230.591 81.4796 230.591C87.9222 230.591 111.04 229.446 115.587 228.3V277.167C105.734 279.076 81.8586 280.985 74.6581 280.985C22.3595 280.603 0.378998 248.153 0.378998 189.36V0.000152588H0Z" fill="white"/>
        <path d="M117.861 74.0639H179.634L225.49 216.847L270.588 74.0639H332.361L259.219 276.785H190.624L117.861 74.0639Z" fill="white"/>
        <path d="M396.787 0V53.0665H342.593V0H396.787ZM342.593 74.064H396.408V276.785H342.593V74.064Z" fill="white"/>
        <path d="M416.493 175.234C416.493 118.35 453.254 70.628 509.342 70.628C535.113 70.628 553.303 81.3177 565.81 95.4433V0H619.624V276.785H565.81V256.17C553.303 270.295 535.113 280.603 509.342 280.603C453.254 280.603 416.493 233.263 416.493 175.234ZM471.824 175.234C471.824 201.958 485.467 230.209 516.922 230.209C536.628 230.209 557.093 215.32 565.81 200.431V150.419C557.472 135.529 536.628 121.022 516.922 121.022C485.846 121.022 471.824 147.746 471.824 175.234Z" fill="white"/>
        <path d="M650.7 0H704.514V276.785H650.7V0Z" fill="white"/>
        <path d="M826.923 70.628C886.422 70.628 925.836 109.569 930.384 175.997C930.763 182.106 930.762 192.414 930.762 198.522H783.72C789.026 217.611 807.975 234.409 831.85 234.409C852.694 234.409 870.884 222.192 879.601 208.066L922.046 229.064C903.855 259.987 873.916 280.603 831.471 280.603C763.256 280.603 724.6 233.263 724.6 175.234C724.6 117.968 771.972 70.628 826.923 70.628ZM873.158 158.436C871.263 137.438 854.967 117.204 829.576 117.204C803.427 117.204 787.51 135.911 782.962 158.436H873.158Z" fill="white"/>
        <path d="M1004.28 74.0642V99.643C1018.31 82.0815 1037.25 71.3918 1061.13 71.3918C1068.71 71.3918 1075.53 72.1554 1082.73 74.0642V126.749C1076.29 125.222 1069.85 124.458 1063.02 124.458C1038.39 124.458 1016.03 135.911 1004.28 155.382V276.786H950.469V74.0642H1004.28Z" fill="white"/>
    </g>
</svg>
