<svg enable-background="new 0 0 512 512" viewBox="0 0 512 512" xmlns="http://www.w3.org/2000/svg"><path d="m488.9 373-75.9-64.6c-.4-.3-.7-.6-1.1-.8-19.9-12.7-45.5-9.9-62.2 6.8l-41.4 41.4c-2.9 2.9-7.1 3.7-10.9 2.2-46.7-19.3-85.1-48.4-114.1-86.5-22.1-29-30.1-52.1-31.1-55.3-.1-.7-.3-1.4-.6-2.1-1.6-3.8-.7-8 2.2-10.9l41.4-41.4c16.7-16.7 19.5-42.3 6.8-62.2-.1-.2-.2-.3-.3-.5l-54.8-76.2c-17.4-26.8-54.9-30.8-77.5-8.3l-8.3 8.3-29.6 29.7c-35.3 35.2-41.1 88.3-16.7 153.3 20.9 55.7 62.7 116.7 117.7 171.7 56.3 56.3 118.9 98.9 176.3 119.8 56.8 20.8 117.3 23.3 160.1-19.5l27.9-27.9c22.5-22.4 18.5-59.7-7.9-77zm-88.3-48.9 75.9 64.5c.3.3.7.6 1.1.8 16.2 10.3 18.7 33 5.1 46.5l-2.1 2.1-129.4-96.9 12.6-12.6c9.9-9.8 24.9-11.6 36.8-4.4zm-270.5-290.2c.1.2.2.3.3.5l54.8 76.2c7.4 11.9 5.7 27.1-4.2 37.1l-12.2 12.2-87.6-128.8 2.3-2.3c13.7-13.6 36.3-11 46.6 5.1zm185.6 444.8c-54.7-20-114.8-60.9-169.1-115.2-53-53-93.2-111.5-113.1-164.6-14.9-39.9-24.9-95.1 12.2-132.2l21.2-21.2 87.5 128.7-14.8 14.8c-8.4 8.4-11 20.8-6.8 31.8 3.2 13 17.7 39.8 32.3 59.7 21.6 29.2 60.7 69.5 124.7 95.9 11.2 4.7 24.1 2.1 32.7-6.5l14.5-14.5 129.4 96.9-11.6 11.5c-39.8 39.8-97.6 30.1-139.1 14.9z"/></svg>