<svg enable-background="new 0 0 512 512" viewBox="0 0 512 512" xmlns="http://www.w3.org/2000/svg"><g fill="#2776f7"><path d="m256 512c-141.2 0-256-114.8-256-256s114.8-256 256-256 256 114.8 256 256-114.8 256-256 256zm0-480c-123.5 0-224 100.5-224 224s100.5 224 224 224 224-100.5 224-224-100.5-224-224-224z"/><path d="m368 394.7c-4.1 0-8.2-1.6-11.3-4.7l-112-112c-3-3-4.7-7.1-4.7-11.3v-149.4c0-8.8 7.2-16 16-16s16 7.2 16 16v142.7l107.3 107.3c6.2 6.2 6.2 16.4 0 22.6-3.1 3.2-7.2 4.8-11.3 4.8z"/></g></svg>