<svg fill="none" height="125" viewBox="0 0 560 125" width="560" xmlns="http://www.w3.org/2000/svg"><g fill="#fff" fill-opacity=".08"><path d="m98.4797 0h-27.5545c0 22.6261-10.3793 43.274-28.4194 56.8745l-10.8736 8.1602 42.2585 57.6163h34.7213l-38.9224-53.0416c18.4108-18.2988 28.7901-43.0268 28.7901-69.6094z"/><path d="m28.1723 0h-28.1723v122.651h28.1723z"/><path d="m143.333 0h-26.566v122.651h26.566z"/><path d="m376.373 35.4846c-10.133 0-19.77 3.091-26.196 11.8695v-9.5203h-25.207v84.8172h25.578v-44.5105c0-12.8586 8.649-19.1643 19.029-19.1643 11.12 0 17.546 6.6766 17.546 19.0406v44.7582h25.33v-54.0312c0-19.7824-15.693-33.2592-36.08-33.2592z"/><path d="m223.649 37.8338v5.4401c-7.167-4.9456-15.816-7.7893-25.207-7.7893-24.713 0-44.73 20.0297-44.73 44.7577 0 24.7277 20.017 44.7577 44.73 44.7577 9.391 0 18.04-2.844 25.207-7.789v5.44h25.33v-84.8172zm-23.107 64.1692c-12.727 0-22.982-9.7676-22.982-21.7607s10.255-21.7606 22.982-21.7606 22.983 9.7675 22.983 21.7606-10.256 21.7607-22.983 21.7607z"/><path d="m288.272 48.838v-11.004h-25.948v84.817h26.072v-39.5647c0-13.3532 14.456-20.5243 24.465-20.5243h.247v-24.728c-10.256 0-19.77 4.451-24.836 11.004z"/><path d="m491.286 37.8338v5.4401c-7.167-4.9456-15.816-7.7893-25.207-7.7893-24.713 0-44.73 20.0297-44.73 44.7577 0 24.7277 20.017 44.7577 44.73 44.7577 9.391 0 18.04-2.844 25.207-7.789v5.44h25.33v-84.8172zm-23.106 64.1692c-12.727 0-22.983-9.7676-22.983-21.7607s10.256-21.7606 22.983-21.7606 22.982 9.7675 22.982 21.7606c.124 11.9931-10.255 21.7607-22.982 21.7607z"/><path d="m536.263 40.3069c0-1.2364-.865-1.9783-2.225-1.9783h-2.347v6.4293h1.112v-2.3492h1.235l.989 2.3492h1.236l-1.112-2.5964c.741-.371 1.112-.9892 1.112-1.8546zm-2.225.9891h-1.235v-1.9783h1.235c.742 0 1.113.371 1.113.9892s-.248.9891-1.113.9891z"/><path d="m533.668 35.6083c-3.336 0-6.055 2.7201-6.055 6.0583.124 3.3383 2.719 6.0584 6.055 6.0584s6.054-2.7201 6.054-6.0584c0-3.3382-2.718-6.0583-6.054-6.0583zm0 11.0039c-2.719 0-4.819-2.2255-4.819-4.9456 0-2.72 2.224-4.9456 4.819-4.9456 2.718 0 4.819 2.2256 4.819 4.9456 0 2.7201-2.224 4.9456-4.819 4.9456z"/><path d="m543.676 92.6068c-8.773 0-15.939 7.1711-15.939 15.9492 0 8.779 7.166 15.95 15.939 15.95s15.94-7.171 15.94-15.95c0-8.9017-7.167-15.9492-15.94-15.9492z"/></g></svg>