<svg width="137" height="153" viewBox="0 0 137 153" fill="none" xmlns="http://www.w3.org/2000/svg">
<path opacity="0.667969" fill-rule="evenodd" clip-rule="evenodd" d="M2.07746 42.5166C2.07746 42.5166 2.31227 43.0104 2.75349 43.9377C3.21056 44.8619 3.78869 46.2368 4.72216 47.9533C5.59292 49.6963 6.76304 51.7313 8.10626 54.0641C8.82089 55.2049 9.58291 56.4187 10.3838 57.6978C11.2442 58.9384 12.1197 60.2645 13.0877 61.6081C15.0389 64.284 17.2011 67.1581 19.729 69.995C22.2188 72.8614 24.9995 75.7535 28.0197 78.5938C31.0247 81.4547 34.3135 84.2148 37.7691 86.8772C41.204 89.5722 44.904 92.0307 48.6799 94.3695C52.4529 96.7221 56.4239 98.7387 60.3764 100.628C64.3313 102.526 68.3756 104.051 72.325 105.418C74.3149 106.055 76.2704 106.694 78.2199 107.195C80.155 107.75 82.0732 108.197 83.9431 108.623C85.8113 109.051 87.6578 109.329 89.4277 109.671C91.2104 109.94 92.9372 110.182 94.6001 110.358C96.2663 110.495 97.8565 110.703 99.3812 110.75C100.904 110.802 102.345 110.893 103.702 110.903C105.057 110.886 106.326 110.871 107.5 110.858C108.672 110.82 109.748 110.724 110.717 110.67C111.688 110.618 112.552 110.547 113.301 110.445C114.051 110.352 114.688 110.276 115.205 110.212C116.235 110.075 116.785 110.001 116.785 110.001C117.304 109.932 117.669 109.454 117.6 108.935C117.537 108.476 117.159 108.136 116.712 108.113L116.672 108.11C116.672 108.11 116.127 108.08 115.105 108.024C114.084 107.954 112.593 107.947 110.699 107.799C109.753 107.738 108.708 107.671 107.569 107.599C106.432 107.496 105.205 107.385 103.893 107.266C101.275 107.021 98.335 106.642 95.1397 106.184C93.5436 105.942 91.8933 105.615 90.1745 105.352C88.4747 104.993 86.6997 104.698 84.9038 104.257C81.2864 103.495 77.5301 102.444 73.6708 101.27C72.7069 100.975 71.7488 100.633 70.7749 100.314C69.7985 99.9963 68.8237 99.6611 67.8558 99.2833C66.8813 98.9229 65.8999 98.5611 64.9138 98.1975C63.9403 97.8019 62.9609 97.4065 61.978 97.0074C58.0732 95.3497 54.1503 93.532 50.3689 91.44C46.5877 89.3539 42.857 87.1418 39.3729 84.6815C35.8958 82.219 32.5361 79.6803 29.521 76.9487C28.7459 76.2895 28.0021 75.6088 27.2821 74.915C26.5573 74.2267 25.8397 73.5457 25.1291 72.872C23.7734 71.4583 22.4025 70.1165 21.1816 68.7047C18.6514 65.9599 16.4813 63.1709 14.5189 60.5713C13.5578 59.2566 12.7004 57.951 11.8508 56.7345C11.0596 55.4776 10.3095 54.2859 9.60489 53.1659C8.94778 52.0164 8.33331 50.9417 7.76669 49.9479C7.19927 48.9512 6.76497 48.0015 6.32572 47.1635C5.44987 45.499 4.86073 44.0943 4.43842 43.163C4.02064 42.2241 3.79866 41.7244 3.79866 41.7244C3.5853 41.2453 3.02649 41.0311 2.54823 41.2439C2.07082 41.4562 1.85494 42.0161 2.06775 42.4943C2.07018 42.4999 2.07449 42.5102 2.07746 42.5166Z" fill="white"/>
<path opacity="0.667969" fill-rule="evenodd" clip-rule="evenodd" d="M112.721 121.506C113.469 120.865 114.245 120.285 115.003 119.709C115.788 119.147 116.59 118.608 117.397 118.079C119.016 117.027 120.712 116.096 122.44 115.241C123.309 114.822 124.19 114.432 125.075 114.051C125.964 113.677 126.868 113.348 127.772 113.019C129.591 112.392 131.437 111.864 133.292 111.403C134.211 111.174 134.771 110.242 134.541 109.323C134.445 108.938 134.226 108.617 133.937 108.389L133.713 108.214L131.668 106.61C130.98 106.084 130.31 105.534 129.617 105.017C128.927 104.498 128.251 103.961 127.558 103.445L125.484 101.895C124.101 100.862 122.676 99.8872 121.197 98.9721C119.711 98.0658 118.193 97.1952 116.51 96.5056C116.003 96.2981 115.378 96.5721 115.17 97.078C115.045 97.3847 115.032 97.7515 115.201 98.0107L115.211 98.0266C115.714 98.8007 116.327 99.461 116.9 100.153C117.495 100.815 118.118 101.462 118.757 102.077C120.028 103.312 121.39 104.444 122.811 105.493C124.235 106.534 125.686 107.545 127.176 108.491C128.663 109.443 130.189 110.338 131.731 111.198L132.155 108.01C131.227 108.401 130.313 108.815 129.405 109.241C128.499 109.673 127.608 110.128 126.718 110.583C125.829 111.037 124.956 111.52 124.08 111.992C123.205 112.468 122.346 112.966 121.487 113.466C120.629 113.963 119.784 114.484 118.94 115.004L116.438 116.607C115.611 117.151 114.746 117.639 113.936 118.209L111.469 119.847L111.453 119.857C111.014 120.142 110.977 120.831 111.279 121.258C111.584 121.685 112.201 121.824 112.628 121.521C112.65 121.504 112.7 121.524 112.721 121.506Z" fill="white"/>
</svg>
