<svg width="135" height="139" viewBox="0 0 135 139" fill="none" xmlns="http://www.w3.org/2000/svg">
<path opacity="0.679297" fill-rule="evenodd" clip-rule="evenodd" d="M123.879 133.853C123.879 133.853 123.845 133.192 123.779 131.951C123.695 130.721 123.668 128.852 123.343 126.634C123.191 125.511 123.088 124.265 122.855 122.911C122.598 121.56 122.319 120.098 122.022 118.536C121.636 116.995 121.226 115.354 120.793 113.625C120.287 111.916 119.722 110.129 119.126 108.268C117.757 104.609 116.197 100.67 114.14 96.7046C112.193 92.685 109.714 88.6776 106.983 84.6768C104.241 80.6747 101.037 76.8302 97.6519 73.0772C94.1942 69.4172 90.3986 65.8729 86.5587 62.6788C82.4553 59.35 78.4484 56.4898 74.2485 53.7064C70.029 51.0226 65.8017 48.5179 61.6031 46.2893C57.3836 44.1051 53.2867 42.0206 49.2733 40.3158C45.3199 38.4777 41.4683 36.9991 37.9518 35.5219C34.3962 34.1511 31.1407 32.8556 28.219 31.7878C25.2947 30.7065 22.7447 29.7639 20.6448 28.9882C18.5344 28.2099 16.8753 27.5972 15.7457 27.1797C14.6162 26.7421 14.0136 26.5078 14.0136 26.5078L13.9862 26.4984C13.2675 26.2183 12.9036 25.3914 13.1736 24.6481C13.4045 24.0166 14.024 23.6503 14.6462 23.7297C14.6462 23.7297 15.2905 23.8119 16.501 23.9667C17.7048 24.1458 19.4852 24.3559 21.7156 24.8057C23.963 25.1881 26.6564 25.8062 29.7516 26.532C31.2854 26.9495 32.9171 27.3952 34.6375 27.8638C36.3592 28.3418 38.1357 28.9546 40.0061 29.543C43.73 30.7832 47.7055 32.3251 51.8481 34.1241C55.9828 35.9407 60.257 38.0831 64.5835 40.4801C68.8955 42.9134 73.2259 45.6699 77.4715 48.7024C81.6609 51.7538 85.8922 55.2455 89.6747 58.7238C93.6229 62.4499 97.2254 66.2836 100.596 70.3288C103.913 74.3955 106.963 78.5646 109.662 82.7754C112.309 87.0172 114.723 91.2159 116.67 95.3809C118.701 99.5015 120.226 103.591 121.556 107.379C122.156 109.299 122.742 111.136 123.256 112.896C123.697 114.678 124.117 116.368 124.511 117.955C124.817 119.566 125.105 121.071 125.37 122.464C125.631 123.859 125.763 125.177 125.937 126.349C126.318 128.719 126.343 130.508 126.479 131.754C126.582 132.993 126.638 133.653 126.638 133.653C126.703 134.439 126.141 135.13 125.379 135.197C124.619 135.266 123.948 134.683 123.883 133.898C123.882 133.886 123.881 133.865 123.879 133.853Z" fill="white"/>
<path opacity="0.679297" fill-rule="evenodd" clip-rule="evenodd" d="M16.4711 17.433C15.2594 17.6283 14.1624 17.9434 13.029 18.3433C11.9086 18.7325 10.8195 19.2159 9.75383 19.7451C7.61474 20.7914 5.67913 22.2713 3.83873 23.7849L5.08044 20.4723C6.18129 22.3387 7.22475 24.1781 8.10386 26.0916C8.55777 27.0437 8.91776 28.0415 9.1708 29.1161C9.29601 29.6534 9.39775 30.2082 9.45514 30.7967C9.46818 31.0996 9.5034 31.3919 9.50601 31.707C9.51644 32.0153 9.50209 32.3426 9.46818 32.6846L9.46297 32.7344C9.37036 33.7013 8.5369 34.4069 7.60039 34.3086C7.43214 34.2924 7.26388 34.2453 7.11519 34.1834C6.80084 34.0474 6.50607 33.8979 6.23607 33.7296C5.96217 33.5639 5.72087 33.3754 5.46131 33.1963C4.9761 32.8193 4.54567 32.4018 4.14785 31.9615C3.36004 31.0794 2.72484 30.091 2.23441 29.034C1.22487 26.9306 0.574013 24.6508 0.185326 22.3239L0.0301113 21.388C-0.145972 20.3322 0.467059 19.3263 1.42834 19.0126C2.64267 18.6126 3.87264 18.276 5.09349 17.9461C6.30781 17.6027 7.51431 17.2768 8.70124 16.9119L12.2516 15.8373C13.4151 15.4778 14.6359 15.1021 15.7615 14.6738L15.7759 14.6671C16.4972 14.3937 17.2954 14.7748 17.5602 15.5195C17.8263 16.2628 17.4572 17.0869 16.7372 17.3616C16.6511 17.394 16.5572 17.4182 16.4711 17.433Z" fill="white"/>
<path opacity="0.679297" fill-rule="evenodd" clip-rule="evenodd" d="M113.099 137.928C113.099 137.928 112.987 137.474 112.774 136.625C112.557 135.784 112.267 134.497 111.768 133.005C111.521 132.249 111.284 131.405 110.96 130.495C110.617 129.591 110.245 128.615 109.849 127.57C109.404 126.545 108.929 125.457 108.43 124.309C107.895 123.177 107.305 122.002 106.692 120.774C105.354 118.381 103.863 115.81 102.065 113.246C100.33 110.637 98.2443 108.077 95.9944 105.533C93.7405 102.988 91.1853 100.587 88.5245 98.2559C85.8207 96.0017 82.8833 93.8269 79.9903 91.9201C76.8456 89.8935 73.8796 88.2412 70.7518 86.6159C67.6202 85.074 64.508 83.6426 61.4312 82.4118C58.3438 81.2174 55.3543 80.066 52.4418 79.2123C49.5566 78.2656 46.7862 77.5196 44.235 76.7682C41.6629 76.1097 39.3046 75.4607 37.1916 74.9638C35.0708 74.4521 33.2213 74.0077 31.6991 73.6387C30.1627 73.2724 28.9549 72.9829 28.1305 72.7863C27.3036 72.5668 26.8627 72.451 26.8627 72.451L26.8184 72.4389C26.071 72.2409 25.6184 71.4559 25.8101 70.6829C25.9614 70.0729 26.4727 69.6528 27.0479 69.6016C27.0479 69.6016 27.511 69.5626 28.3796 69.4871C29.247 69.4387 30.5279 69.3107 32.1491 69.3377C33.7782 69.2959 35.7465 69.4023 38.0121 69.541C39.139 69.6649 40.339 69.7982 41.6042 69.9369C42.8707 70.085 44.1841 70.349 45.5641 70.5738C48.3149 71.0963 51.2757 71.7925 54.3461 72.7648C57.4165 73.7289 60.6068 74.9234 63.8389 76.3265C67.0619 77.7539 70.3084 79.4291 73.5013 81.3197C76.6487 83.2171 79.886 85.4686 82.7268 87.6783C85.7633 90.0928 88.5271 92.5665 91.1723 95.2031C93.7862 97.8438 96.2135 100.575 98.44 103.319C100.622 106.101 102.658 108.848 104.401 111.586C106.186 114.294 107.654 117.001 108.966 119.513C109.585 120.789 110.179 122.011 110.745 123.175C111.258 124.364 111.744 125.492 112.202 126.553C113.028 128.711 113.751 130.593 114.259 132.202C114.833 133.799 115.111 135.025 115.382 135.866C115.63 136.705 115.763 137.154 115.763 137.154C115.984 137.909 115.574 138.706 114.843 138.938C114.113 139.167 113.341 138.743 113.116 137.987C113.111 137.97 113.104 137.946 113.099 137.928Z" fill="white"/>
<path opacity="0.679297" fill-rule="evenodd" clip-rule="evenodd" d="M25.8621 66.5299C24.5774 66.9339 23.41 67.5924 22.274 68.3196C21.1327 69.0346 20.0749 69.9341 19.0614 70.9252L20.1727 67.7702C21.1992 68.9161 22.2335 70.0028 22.9405 71.2605C23.3213 71.8759 23.6135 72.5385 23.7557 73.3047C23.8274 73.6885 23.847 74.11 23.8326 74.557C23.8378 74.7725 23.7909 75.0256 23.77 75.2613C23.727 75.5131 23.6722 75.773 23.5848 76.0598L23.5744 76.0948C23.2561 77.1236 22.2831 77.7498 21.2814 77.6407C20.684 77.5761 20.234 77.3983 19.8088 77.2031C19.394 76.9984 19.0184 76.7641 18.6988 76.4894C18.0623 75.9373 17.6019 75.2667 17.2536 74.5314C16.8936 73.8056 16.6093 73.0367 16.4084 72.2314C16.2102 71.4262 16.0849 70.5899 15.9663 69.7618L15.768 68.3936C15.6454 67.5372 16.218 66.7387 17.0475 66.6121C17.0554 66.6107 17.0697 66.6094 17.0775 66.608C18.4627 66.4236 19.8062 66.1475 21.0648 65.687C22.33 65.2399 23.5613 64.7228 24.6778 63.9512C25.3182 63.5068 26.1869 63.6846 26.6173 64.3458C27.0465 65.0083 26.8743 65.9051 26.2339 66.3482C26.1178 66.429 25.9887 66.4909 25.8621 66.5299Z" fill="white"/>
<path opacity="0.679297" fill-rule="evenodd" clip-rule="evenodd" d="M131.463 132.455C131.463 132.455 131.529 131.882 131.657 130.806C131.777 129.738 131.992 128.14 132.112 126.167C132.176 125.174 132.282 124.081 132.336 122.88C132.37 121.675 132.408 120.371 132.447 118.979C132.44 117.586 132.43 116.104 132.42 114.54C132.355 112.98 132.286 111.338 132.215 109.627C131.928 106.21 131.577 102.511 130.937 98.641C130.38 94.756 129.466 90.7189 128.392 86.5902C127.308 82.4629 125.876 78.2965 124.295 74.1315C122.638 70.015 120.718 65.8526 118.682 61.9515C116.481 57.8377 114.232 54.1426 111.804 50.4327C109.326 46.8023 106.797 43.3025 104.18 40.0599C101.532 36.8455 98.9484 33.7564 96.2733 31.0457C93.7051 28.2286 91.0625 25.794 88.6939 23.4576C87.4665 22.3373 86.2913 21.2613 85.1722 20.2393C84.0309 19.2401 82.9483 18.2907 81.931 17.3993C79.8767 15.6326 78.0558 14.1149 76.5363 12.8841C75.0337 11.6251 73.8076 10.6932 72.9924 10.0186C72.1759 9.34125 71.7416 8.98036 71.7416 8.98036L71.6959 8.94265C71.0973 8.44576 71.0034 7.54085 71.4846 6.92276C71.8864 6.41105 72.5594 6.25619 73.119 6.50531C73.119 6.50531 73.6433 6.73827 74.6255 7.17457C75.5946 7.63915 77.0619 8.2505 78.8084 9.24833C79.6836 9.74388 80.6919 10.2381 81.7236 10.8818C82.7566 11.5254 83.8744 12.2243 85.0692 12.969C86.2235 13.7796 87.4508 14.6442 88.746 15.5545C90.0308 16.4823 91.309 17.5555 92.6812 18.6314C95.3642 20.8574 98.1424 23.4361 100.928 26.3219C103.704 29.2184 106.452 32.4543 109.133 35.9285C111.792 39.4256 114.324 43.2055 116.69 47.1699C119.008 51.1276 121.203 55.4596 123.055 59.5896C124.968 63.9808 126.595 68.3102 128.022 72.7162C129.413 77.1129 130.578 81.4947 131.545 85.7702C132.45 90.0591 133.233 94.2214 133.743 98.2047C134.303 102.18 134.577 105.968 134.789 109.461C134.856 111.21 134.92 112.887 134.98 114.481C134.987 116.077 134.993 117.59 135 119.014C134.922 121.855 134.856 124.337 134.713 126.39C134.627 128.457 134.421 130.01 134.349 131.097C134.259 132.175 134.212 132.752 134.212 132.752C134.146 133.537 133.476 134.118 132.716 134.051C131.956 133.984 131.391 133.292 131.457 132.507C131.459 132.49 131.46 132.47 131.463 132.455Z" fill="white"/>
<path opacity="0.679297" fill-rule="evenodd" clip-rule="evenodd" d="M75.0336 2.53558C73.0302 2.53558 71.0698 3.23985 69.1068 3.69634C68.1246 3.92527 67.1503 4.30635 66.172 4.61607L63.2282 5.64757L65.589 2.59348C66.2464 4.29827 66.7955 6.00711 67.1151 7.75095C67.2859 8.61951 67.3433 9.51769 67.2611 10.4509C67.2194 10.9168 67.1451 11.3962 67.0159 11.8877C66.9351 12.1368 66.8751 12.3846 66.7772 12.6405C66.6885 12.8963 66.5699 13.1589 66.4277 13.4282L66.4133 13.4578C65.9281 14.3843 64.8077 14.7304 63.9103 14.2308C63.8556 14.1998 63.7995 14.1648 63.7486 14.1298C63.4995 13.9547 63.2738 13.7729 63.0769 13.5831C62.8747 13.3945 62.7104 13.1953 62.5238 13C62.1886 12.6014 61.9147 12.1853 61.676 11.7584C61.2013 10.9047 60.8895 10.0052 60.7134 9.0787C60.3391 7.22982 60.283 5.3163 60.4252 3.3974L60.5126 2.20566C60.5974 1.07048 61.556 0.220773 62.6556 0.305609C62.6973 0.309648 62.7443 0.315035 62.7847 0.321768C64.7634 0.612633 66.7668 0.923697 68.7376 0.853674C70.7098 0.797117 72.6728 0.616673 74.581 0.0551411C75.3205 -0.161661 76.0888 0.280023 76.3001 1.04354C76.5101 1.80707 76.0823 2.43189 75.3427 2.65138C75.2449 2.67966 75.1471 2.53558 75.0492 2.53558H75.0336Z" fill="white"/>
</svg>
