<svg width="85" height="53" viewBox="0 0 85 53" fill="none" xmlns="http://www.w3.org/2000/svg">
<path opacity="0.667969" fill-rule="evenodd" clip-rule="evenodd" d="M0.562195 6.41581C0.562195 6.41581 0.892514 6.3482 1.51294 6.22137C2.1377 6.1035 3.0294 5.87795 4.22119 5.70065C5.40271 5.48265 6.83918 5.3037 8.48654 5.09949C9.31359 5.02805 10.1942 4.95288 11.1214 4.87259C12.0516 4.83597 13.0296 4.775 14.0505 4.75307C16.0926 4.72093 18.3104 4.71914 20.6457 4.91129C22.9814 5.07374 25.4377 5.36993 27.9573 5.80325C30.4815 6.22142 33.0613 6.81682 35.655 7.53056C38.257 8.22208 40.8409 9.13184 43.394 10.1235C45.9529 11.1086 48.4197 12.3158 50.8169 13.5613C53.2195 14.8046 55.4716 16.2302 57.6103 17.6681C58.6625 18.4118 59.7029 19.1377 60.6732 19.9118C61.6644 20.6591 62.5966 21.4377 63.5006 22.2004C64.4044 22.9618 65.2267 23.7679 66.0521 24.5125C66.8458 25.2909 67.6062 26.0513 68.3098 26.8051C68.9954 27.575 69.6883 28.2807 70.2774 29.014C70.8682 29.7448 71.4477 30.4208 71.9559 31.0856C72.4506 31.7588 72.9144 32.3897 73.3434 32.9729C73.7593 33.5638 74.1117 34.1295 74.445 34.6267C74.7796 35.1238 75.0653 35.5761 75.2928 35.983C75.5256 36.3865 75.7245 36.7287 75.8849 37.0067C76.1996 37.5652 76.367 37.8632 76.367 37.8632C76.5257 38.1445 76.4258 38.502 76.1445 38.6601C75.8953 38.7999 75.5875 38.7392 75.4102 38.5279L75.394 38.5092C75.394 38.5092 75.177 38.2524 74.7699 37.7696C74.357 37.2929 73.8001 36.5609 73.0242 35.683C72.6433 35.2398 72.2221 34.75 71.7637 34.2158C71.2915 33.6944 70.781 33.131 70.2358 32.5294C69.1437 31.3305 67.866 30.0234 66.4543 28.6199C65.7429 27.9236 64.9695 27.2321 64.2019 26.4834C63.3942 25.7796 62.5902 25.0149 61.7066 24.294C59.9889 22.7952 58.0775 21.3352 56.0668 19.8704C55.564 19.505 55.0398 19.1603 54.5212 18.799C54.0025 18.436 53.4757 18.0803 52.9305 17.7438C52.3913 17.3976 51.8489 17.0486 51.3039 16.6979C50.7478 16.3652 50.1896 16.0296 49.6283 15.6937C47.3627 14.3858 45.0117 13.1284 42.5781 12.0425C40.1474 10.9545 37.6735 9.93811 35.1688 9.13532C32.6656 8.33674 30.1685 7.62429 27.7043 7.15309C27.092 7.01602 26.4807 6.90237 25.8718 6.80524C25.2639 6.70372 24.6622 6.603 24.0667 6.50308C22.8673 6.36008 21.6977 6.18286 20.5493 6.10553C18.2586 5.87812 16.0796 5.84442 14.0711 5.84269C13.067 5.85727 12.1058 5.91954 11.1913 5.95258C10.2787 6.02937 9.41344 6.10224 8.6004 6.17084C7.79038 6.27385 7.03306 6.37008 6.33339 6.4598C5.63191 6.55027 5.00303 6.68883 4.42734 6.78348C3.28255 6.96986 2.37208 7.20105 1.75674 7.33865C1.13927 7.48136 0.810789 7.55749 0.810789 7.55749C0.495663 7.63021 0.182785 7.4345 0.110103 7.11999C0.0374632 6.80609 0.233093 6.49198 0.547603 6.4193C0.551251 6.41843 0.557932 6.41673 0.562195 6.41581Z" fill="white"/>
<path opacity="0.667969" fill-rule="evenodd" clip-rule="evenodd" d="M80.5247 31.5921C80.4868 32.1987 80.489 32.7957 80.4868 33.3832C80.5012 33.9781 80.5335 34.5729 80.5725 35.1667C80.655 36.3547 80.8259 37.5352 81.0461 38.7035C81.1623 39.287 81.2974 39.8661 81.4379 40.4429C81.5839 41.0193 81.7577 41.587 81.9309 42.1541C82.2973 43.2826 82.7226 44.3878 83.1835 45.4726C83.4115 46.0099 83.1607 46.6314 82.6228 46.8594C82.3977 46.9549 82.158 46.9667 81.9382 46.9085L81.7694 46.8635L80.2205 46.4513C79.706 46.308 79.1866 46.1817 78.6749 46.0327C78.1632 45.8855 77.6476 45.7515 77.1364 45.6018L75.6031 45.1558C74.5814 44.8576 73.5723 44.5177 72.5727 44.1289C71.5752 43.7338 70.583 43.3092 69.6188 42.7363C69.3285 42.5637 69.2313 42.1538 69.4032 41.8636C69.5078 41.6882 69.6839 41.5461 69.874 41.5328L69.8857 41.5319C70.4535 41.4922 71.0064 41.5494 71.5596 41.5744C72.1069 41.622 72.6561 41.6887 73.1963 41.7752C74.2762 41.9426 75.3397 42.1934 76.3832 42.5043C77.4246 42.8191 78.4609 43.1583 79.4798 43.5408C80.5003 43.9201 81.5076 44.3392 82.5033 44.7796L81.0905 46.1716C80.939 45.5696 80.8034 44.9659 80.6764 44.3603C80.553 43.7538 80.4462 43.1462 80.3401 42.5392C80.2334 41.9328 80.1475 41.3237 80.055 40.717C79.9649 40.1094 79.8909 39.5014 79.8187 38.8932C79.7447 38.2858 79.6879 37.6765 79.6305 37.068L79.4916 35.2411C79.4527 34.6312 79.3719 34.0249 79.3521 33.4143L79.2432 31.5915L79.2424 31.5798C79.2198 31.2575 79.545 30.9838 79.8677 30.9742C80.191 30.9658 80.4886 31.2176 80.4976 31.5409C80.4976 31.5582 80.526 31.5747 80.5247 31.5921Z" fill="white"/>
</svg>
